<svg width="70" height="70" viewBox="0 0 70 70" fill="none" xmlns="http://www.w3.org/2000/svg">
<path d="M29.6 48.5H49.4V42.4812H29.6V48.5ZM20.6 27.5188H26V21.5H20.6V27.5188ZM20.6 38.0375H26V32.0187H20.6V38.0375ZM20.6 48.5H26V42.4812H20.6V48.5ZM29.6 38.0375H49.4V32.0187H29.6V38.0375ZM29.6 27.5188H49.4V21.5H29.6V27.5188ZM20.6 53C19.61 53 18.7625 52.5594 18.0575 51.6781C17.3525 50.7969 17 49.7375 17 48.5V21.5C17 20.2625 17.3525 19.2031 18.0575 18.3219C18.7625 17.4406 19.61 17 20.6 17H49.4C50.39 17 51.2375 17.4406 51.9425 18.3219C52.6475 19.2031 53 20.2625 53 21.5V48.5C53 49.7375 52.6475 50.7969 51.9425 51.6781C51.2375 52.5594 50.39 53 49.4 53H20.6Z" fill="#43484B"/>
</svg>
